PathFileType	4	(X/Y/Z)	Kaydara																																																																																																																									
DataRate	CameraRate	NumFrames	NumMarkers	Units	OrigDataRate	OrigDataStartFrame	OrigNumFrames																																																																																																																					
30	30	4	41	mm	30	353	373																																																																																																																					
Frame#	Time	NABA_LFHD			NABA_RFHD			NABA_LBHD			NABA_RBHD			NABA_LFTShould			NABA_RFTShould			NABA_LRRShould			NABA_RRRShould			NABA_T10			NABA_STRN			NABA_TRUN			NABA_LSHO			NABA_LUPA			NABA_LELB			NABA_LFRM			NABA_LWRA			NABA_LWRB			NABA_LFIN			NABA_RSHO			NABA_RUPA			NABA_RELB			NABA_RFRM			NABA_RWRA			NABA_RWRB			NABA_RFIN			NABA_LFWT			NABA_RFWT			NABA_LBWT			NABA_RBWT			NABA_LTHI			NABA_LKNE			NABA_LSHN			NABA_LANK			NABA_LHEE			NABA_LTOE			NABA_RTHI			NABA_RKNE			NABA_RSHN			NABA_RANK			NABA_RHEE			NABA_RTOE		
		X1	Y1	Z1	X2	Y2	Z2	X3	Y3	Z3	X4	Y4	Z4	X5	Y5	Z5	X6	Y6	Z6	X7	Y7	Z7	X8	Y8	Z8	X9	Y9	Z9	X10	Y10	Z10	X11	Y11	Z11	X12	Y12	Z12	X13	Y13	Z13	X14	Y14	Z14	X15	Y15	Z15	X16	Y16	Z16	X17	Y17	Z17	X18	Y18	Z18	X19	Y19	Z19	X20	Y20	Z20	X21	Y21	Z21	X22	Y22	Z22	X23	Y23	Z23	X24	Y24	Z24	X25	Y25	Z25	X26	Y26	Z26	X27	Y27	Z27	X28	Y28	Z28	X29	Y29	Z29	X30	Y30	Z30	X31	Y31	Z31	X32	Y32	Z32	X33	Y33	Z33	X34	Y34	Z34	X35	Y35	Z35	X36	Y36	Z36	X37	Y37	Z37	X38	Y38	Z38	X39	Y39	Z39	X40	Y40	Z40	X41	Y41	Z41
																																																																																																																												
280	11.73	237.37759	1424.48257	879.31129	68.06554	1393.32993	884.11087	247.84681	1506.83624	783.69057	32.4337	1460.95764	816.17622	217.69688	1293.25104	699.85802	90.08585	1282.55341	712.58408	207.59563	1367.24045	594.45229	63.72802	1354.7673	615.19897	140.08547	1211.71753	500.84656	163.41549	1228.99582	747.30553	171.53931	1125.47035	780.1709	305.58756	1329.26788	652.01355	372.57355	1104.46854	623.16662	376.51672	1003.31161	650.86914	365.54764	920.92369	636.58012	297.57782	787.02736	729.1217	370.35458	782.2319	728.00827	347.07787	733.27621	777.87582	1.28462	1311.91452	687.69653	-60.6743	1112.30408	618.52222	-70.36332	979.05685	666.31271	-67.82257	884.39804	672.48535	17.64181	762.11624	733.97659	-55.09316	748.15102	748.02414	-32.81856	711.66061	774.39636	292.76449	928.22044	687.89673	29.45379	918.52562	712.96524	228.02593	974.73457	517.61841	59.73184	989.29123	531.47877	310.22434	618.04211	627.88715	318.211	492.30145	729.61082	280.46183	300.24679	789.39217	318.8142	142.80207	741.38145	264.15197	84.05064	694.13162	307.19852	75.71773	878.64655	38.54273	634.01093	563.96503	66.69672	468.39493	672.20642	95.11886	295.65472	635.05501	95.93933	113.35203	545.40142	139.2394	76.78579	466.86184	140.27125	54.05385	645.61874
281	11.763	238.70878	1426.26602	884.83467	69.3553	1395.37766	889.29359	249.65931	1507.36237	788.14964	34.04649	1462.13318	820.29694	219.79208	1292.8714	707.20688	91.93035	1282.57431	719.36378	210.23689	1365.90744	600.8506	66.10282	1353.82965	620.81062	142.841	1209.79523	507.86232	164.87644	1229.06685	754.7448	172.56657	1125.61951	788.13148	307.94699	1328.3667	659.27132	374.65252	1103.3149	631.33274	378.71708	1002.29843	659.1967	367.65408	920.00908	645.08423	300.47455	786.08437	738.30475	373.21133	781.31714	736.56639	350.50114	732.32109	786.6378	3.08105	1311.61011	693.22227	-59.16667	1113.32924	622.2953	-70.72241	979.54384	668.08258	-69.25554	885.04196	672.771	14.99638	760.78148	733.02139	-58.02843	747.25571	746.05316	-36.27918	710.03059	771.98471	294.2708	926.76842	696.57539	30.72396	917.24846	720.57335	230.16792	973.50258	526.2191	61.97483	988.11539	539.31828	312.43658	616.88015	638.23795	318.67193	491.93386	741.08841	279.78662	301.93913	806.45111	319.52793	142.98005	766.12953	266.11456	82.03135	719.75113	304.2334	80.17201	905.66467	40.16031	633.43998	570.10296	68.07969	466.99741	677.04094	96.36992	294.36731	638.42976	96.52622	113.09516	546.53305	139.581	77.22364	467.33688	140.56204	54.07731	645.61829
282	11.797	240.48872	1427.64389	890.80154	71.02809	1397.08755	894.93187	251.95562	1507.55432	793.19794	36.10626	1463.03146	825.01877	222.27802	1292.3497	714.83437	94.09658	1282.43698	726.45523	213.18687	1364.50073	607.5993	68.82483	1352.84821	626.90357	145.8528	1207.88857	515.26192	166.77481	1228.8681	762.45323	173.97642	1125.52208	796.27686	310.58966	1327.26501	666.88248	377.20009	1101.99783	640.32852	381.15215	1001.20239	668.5704	370.41622	919.04625	654.37225	303.64086	784.57474	747.22336	376.4653	780.382	745.74295	353.90423	731.13777	795.70251	5.28587	1311.15723	699.19197	-57.60984	1114.24713	626.70406	-70.84245	980.03395	670.65384	-70.116	885.42091	673.97034	12.40791	759.53941	732.6638	-60.73512	746.45584	744.72572	-39.63825	708.62328	770.55038	295.81242	925.57739	705.92682	32.13794	915.88326	728.19069	232.57477	972.26028	534.99298	64.48034	986.98288	547.19086	314.50005	615.61005	648.79829	319.34723	491.39889	752.12379	280.17727	303.2625	821.78886	320.40146	143.17033	786.83678	267.35334	80.73681	742.07993	303.98403	83.82886	928.44154	41.99726	632.81757	576.22513	69.76831	465.59475	682.04231	97.844	293.12176	641.65337	97.43389	112.65694	547.72919	139.99688	77.63223	467.73026	140.89532	54.11713	645.61218
283	11.83	242.70294	1428.62274	897.25891	73.18686	1398.37692	901.17226	254.6804	1507.50031	798.87482	38.63404	1463.64441	830.38742	225.04154	1291.67282	722.87674	96.49361	1282.20718	733.95767	216.46545	1363.05969	614.89826	71.89768	1351.81931	633.438	149.2679	1206.10229	523.00037	169.02271	1228.56339	770.51155	175.75521	1125.27695	804.77821	313.55988	1326.07468	674.94301	380.09178	1100.58395	649.84337	383.79631	1000.02533	678.65204	373.69522	918.07533	664.02794	307.1629	782.37663	754.9234	379.89685	779.086	754.83116	357.10014	729.42146	804.34853	7.84115	1310.66071	705.54619	-55.70315	1115.05325	631.81896	-70.68776	980.59296	674.09073	-70.76164	885.97504	676.12289	9.83259	758.29758	733.2814	-63.36011	745.90096	744.90356	-42.81848	707.46811	770.26016	297.60656	924.05289	715.50705	33.63299	914.57268	735.87959	235.5324	971.00868	544.16706	67.3831	985.9816	555.21156	316.712	614.23347	658.72704	320.6287	490.41615	762.13127	281.40818	304.02029	835.39574	321.35414	142.98103	804.72794	268.12943	79.62667	761.73531	305.11484	86.61136	947.96318	44.07753	632.23183	582.2654	71.17109	464.20826	686.9519	99.12115	291.90393	644.7728	98.11281	112.41274	548.92548	140.43096	78.16477	468.16765	141.27295	54.08761	645.4792
